<?xml version="1.0" standalone="no"?>
<!DOCTYPE svg PUBLIC "-//W3C//DTD SVG 20010904//EN"
 "http://www.w3.org/TR/2001/REC-SVG-20010904/DTD/svg10.dtd">
<svg version="1.0" xmlns="http://www.w3.org/2000/svg"
 width="640.000000pt" height="640.000000pt" viewBox="0 0 640.000000 640.000000"
 preserveAspectRatio="xMidYMid meet">
<metadata>
Created by potrace 1.11, written by Peter Selinger 2001-2013
</metadata>
<g transform="translate(0.000000,640.000000) scale(0.100000,-0.100000)"
fill="#000000" stroke="none">
<path d="M3100 6204 c-14 -2 -74 -5 -135 -8 -193 -6 -436 -51 -640 -118 -49
-16 -119 -38 -155 -50 -36 -11 -74 -26 -85 -32 -11 -7 -47 -23 -80 -36 -73
-29 -261 -119 -330 -157 -120 -68 -310 -201 -409 -286 -27 -23 -54 -44 -60
-46 -44 -15 -394 -385 -472 -500 -60 -88 -74 -107 -91 -126 -17 -19 -38 -52
-64 -105 -7 -14 -22 -38 -33 -54 -45 -66 -179 -336 -217 -436 -70 -187 -105
-297 -118 -373 -6 -32 -13 -62 -16 -67 -3 -5 -12 -42 -20 -82 -8 -40 -21 -102
-29 -138 -46 -203 -43 -762 4 -970 11 -47 35 -155 54 -240 18 -85 39 -171 46
-190 22 -66 32 -95 45 -141 7 -26 26 -75 43 -110 17 -35 38 -80 46 -99 9 -19
19 -42 24 -50 5 -8 31 -60 58 -115 27 -55 66 -127 86 -160 20 -33 50 -82 66
-110 48 -83 264 -354 332 -419 25 -23 59 -58 76 -77 62 -68 191 -182 264 -234
15 -11 54 -40 87 -65 32 -25 84 -63 117 -85 32 -22 61 -45 63 -52 3 -6 19 -15
36 -19 18 -3 37 -10 43 -15 16 -13 114 -66 164 -90 44 -20 62 -29 98 -49 107
-58 294 -128 369 -136 71 -9 144 27 155 76 5 19 10 164 13 321 4 249 3 289
-11 299 -12 10 -32 11 -97 2 -242 -34 -453 -18 -592 44 -44 19 -87 40 -95 45
-8 5 -26 14 -40 20 -14 5 -45 34 -70 65 -25 30 -64 77 -87 105 -24 27 -43 55
-43 62 0 25 -21 87 -35 100 -7 8 -21 29 -29 48 -65 138 -165 266 -258 330 -32
22 -76 57 -99 78 -35 35 -40 44 -37 78 3 37 5 38 53 51 86 22 252 -7 305 -53
14 -12 38 -29 53 -39 68 -42 188 -170 202 -215 12 -39 110 -152 178 -204 87
-68 188 -114 272 -125 87 -12 289 2 330 22 17 8 47 22 68 30 39 16 57 45 57
93 0 14 13 51 28 82 16 31 34 72 41 92 6 20 20 45 30 56 18 19 64 102 59 104
-2 1 -39 7 -83 15 -299 50 -371 71 -555 157 -153 72 -243 133 -344 233 -165
165 -182 190 -266 379 -33 73 -39 90 -43 120 -3 17 -12 50 -20 75 -54 159 -57
177 -64 401 -6 208 7 448 27 474 4 6 13 33 20 60 7 28 19 59 27 70 7 11 13 27
13 36 0 44 121 246 191 316 24 24 23 31 -7 183 -37 187 -27 355 35 585 16 62
22 72 52 87 37 19 129 23 175 9 16 -5 56 -14 89 -21 33 -7 79 -24 102 -36 23
-13 53 -24 67 -24 14 0 28 -5 31 -10 3 -6 23 -18 43 -28 20 -10 105 -56 187
-102 139 -79 154 -85 202 -83 29 1 62 7 75 14 24 13 58 20 213 39 50 7 126 18
170 25 131 22 435 19 600 -5 226 -33 325 -52 331 -61 3 -5 34 -9 69 -9 56 0
70 4 126 40 71 43 77 47 200 112 117 62 118 63 164 83 154 67 372 97 407 58
37 -42 56 -104 78 -251 24 -161 25 -346 2 -404 -6 -15 -14 -60 -18 -101 l-7
-75 57 -72 c31 -40 79 -118 107 -173 28 -56 54 -106 58 -112 13 -18 38 -126
61 -263 21 -124 22 -143 11 -310 -17 -283 -52 -493 -91 -557 -10 -16 -25 -53
-33 -81 -14 -49 -45 -112 -90 -185 -58 -94 -228 -268 -294 -303 -18 -9 -33
-20 -33 -24 0 -6 -43 -32 -150 -91 -57 -31 -123 -56 -245 -95 -136 -42 -186
-54 -348 -77 -49 -7 -81 -17 -84 -26 -3 -7 6 -30 19 -51 70 -106 91 -153 120
-261 34 -132 36 -172 30 -788 -4 -298 -2 -337 14 -378 29 -76 113 -104 209
-71 22 8 65 22 95 31 30 9 62 22 70 29 8 7 38 21 65 31 28 10 75 31 105 46 30
16 60 29 66 29 6 0 47 23 90 52 44 29 94 58 112 64 18 6 57 31 87 55 30 24 67
51 83 59 73 40 304 230 382 314 8 9 47 49 85 89 120 125 177 191 188 214 6 13
13 23 17 23 10 0 270 391 270 405 0 4 27 64 61 133 33 70 69 145 80 167 10 22
30 74 43 115 13 41 36 107 50 145 14 39 28 90 32 115 4 25 11 54 16 64 6 10
14 51 19 89 5 39 13 75 19 81 5 5 10 26 10 46 0 19 7 60 15 90 22 83 39 383
30 550 -14 299 -25 390 -61 515 -21 74 -41 164 -49 215 -7 48 -37 145 -60 195
-7 17 -28 68 -45 115 -42 109 -96 227 -121 261 -10 15 -19 33 -19 41 -1 7 -16
38 -35 68 -19 30 -46 78 -61 105 -15 28 -31 52 -36 53 -4 2 -15 18 -22 36 -7
18 -27 48 -43 67 -16 19 -41 53 -55 76 -15 22 -37 52 -50 65 -13 13 -36 42
-53 63 -117 153 -358 384 -496 475 -21 14 -44 33 -51 42 -14 16 -201 140 -301
199 -167 97 -437 216 -567 250 -41 11 -97 28 -125 38 -68 25 -158 49 -230 61
-33 6 -98 17 -145 26 -123 23 -495 40 -590 28z"/>
<path d="M3526 4180 c-45 -4 -62 -11 -77 -29 -25 -30 -24 -37 6 -66 21 -21 33
-25 88 -25 44 0 68 -5 77 -15 13 -15 49 -21 185 -31 51 -3 98 -12 109 -20 32
-22 66 -18 66 8 0 45 -73 89 -232 142 -124 40 -146 44 -222 36z"/>
<path d="M2815 4074 c-27 -7 -67 -14 -87 -14 -20 0 -63 -7 -95 -16 -32 -9 -83
-20 -113 -25 -30 -5 -69 -16 -87 -24 -17 -8 -34 -15 -38 -15 -4 0 -20 -9 -36
-21 -23 -16 -29 -28 -29 -55 0 -55 15 -74 58 -74 21 0 42 4 48 9 5 5 34 16 64
24 118 34 333 28 388 -12 53 -37 196 -57 213 -29 12 18 -2 81 -22 101 -11 10
-19 22 -19 26 0 5 -15 18 -34 29 -19 11 -40 32 -48 47 -9 19 -29 34 -63 46
-27 11 -50 19 -50 18 0 0 -22 -7 -50 -15z"/>
<path d="M3670 3755 c-18 -11 -41 -13 -83 -9 -53 6 -59 4 -55 -12 4 -22 57
-42 67 -25 4 6 13 -13 20 -41 20 -78 27 -88 64 -88 24 0 41 9 61 29 16 16 48
35 72 42 53 16 63 36 31 65 -57 52 -127 68 -177 39z"/>
<path d="M2790 3715 c-8 -2 -55 -9 -105 -15 -49 -7 -97 -18 -105 -25 -8 -6
-45 -23 -83 -35 -74 -26 -108 -59 -82 -80 10 -9 35 -10 79 -5 45 4 90 2 145
-10 72 -14 83 -15 116 0 21 8 44 15 52 15 24 0 103 73 103 95 0 29 -11 40 -49
53 -34 12 -41 13 -71 7z"/>
<path d="M3786 3164 c-11 -30 -6 -53 16 -68 38 -27 51 -21 45 20 -8 49 -48 81
-61 48z"/>
<path d="M2893 3147 c-24 -8 -36 -20 -44 -44 -6 -19 -8 -40 -5 -48 6 -16 36
-21 36 -6 0 5 13 11 29 14 25 5 31 13 36 41 7 34 1 57 -13 55 -4 -1 -22 -7
-39 -12z"/>
<path d="M3188 3052 c-43 -12 -89 -17 -127 -14 -35 3 -61 0 -65 -6 -4 -6 4
-27 16 -46 36 -54 91 -74 260 -91 205 -21 196 -22 251 30 27 25 56 45 65 45
23 0 70 41 74 64 2 10 -4 23 -13 29 -13 8 -31 3 -81 -22 -67 -35 -123 -39
-123 -11 0 27 -24 35 -108 37 -54 2 -105 -4 -149 -15z"/>
<path d="M3565 2758 c-22 -4 -83 -7 -135 -7 -116 -1 -201 -14 -245 -38 -18
-10 -56 -30 -84 -46 -31 -17 -66 -48 -92 -82 -36 -48 -40 -59 -35 -89 13 -67
104 -104 179 -72 20 8 70 20 109 25 147 22 194 30 243 41 51 11 115 6 115 -9
0 -15 53 -27 90 -21 44 7 100 76 100 124 0 35 -41 106 -84 145 -30 28 -99 41
-161 29z m29 -118 c20 -7 26 -16 26 -40 0 -26 -6 -33 -37 -47 -27 -11 -53 -13
-91 -9 -32 4 -70 1 -93 -6 -34 -10 -45 -9 -69 5 -15 9 -37 17 -48 17 -27 0
-38 19 -21 35 21 19 107 45 153 46 23 0 50 4 61 9 22 10 79 5 119 -10z"/>
<path d="M3165 2241 c3 -5 1 -12 -5 -16 -15 -9 -11 -37 8 -61 10 -12 49 -31
87 -44 39 -13 80 -30 93 -38 30 -19 245 -12 280 9 23 15 41 74 26 89 -5 5 -76
11 -159 15 -142 5 -236 23 -250 46 -4 5 -24 9 -46 9 -22 0 -38 -4 -34 -9z"/>
</g>
</svg>
